
<svg 
aria-hidden="true" 
xmlns="http://www.w3.org/2000/svg" 
overflow="hidden">
<defs>
<!-- HEADER-HEADER-HEADER-HEADERHEADER-HEADER -->


<!-- ICE-CREAM -->
 <symbol id="ice-cream"> 
<svg xmlns="http://www.w3.org/2000/svg" width="199" height="50" viewBox="0 0 199 50" fill="none">
  <ellipse cx="25" cy="25.5" rx="24" ry="24.5" fill="white"/>
  <path d="M18.5144 0.877464C6.94289 4.38148 0 13.4919 0 25.0051C0 34.4159 4.82984 42.6253 12.779 46.73C16.9044 48.8324 17.5082 47.3307 13.6845 44.4273C10.9678 42.2248 10.4647 41.2237 10.4647 37.5194C10.4647 34.9164 9.86092 32.814 8.95533 32.0131C7.14414 30.5114 6.94289 26.6069 8.75408 25.2053C9.45844 24.6046 10.1628 22.6023 10.2634 20.8003C10.7665 14.1927 17.9107 7.9856 25.0548 7.9856C32.1989 7.9856 39.3431 14.1927 39.8462 20.8003C39.9468 22.6023 40.6511 24.6046 41.3555 25.2053C43.1667 26.6069 42.9654 30.5114 41.1543 32.0131C40.2487 32.814 39.6449 34.9164 39.6449 37.5194C39.6449 41.2237 39.1418 42.2248 36.425 44.4273C32.1989 47.7311 33.4064 48.9325 38.1356 46.0292C44.7766 41.9245 49.7071 33.0143 49.7071 25.1052C49.7071 9.28709 33.2051 -3.52758 18.5144 0.877464Z" fill="#D41443"/>
  <path d="M19.8225 12.4908C18.0113 13.2917 16.502 14.2928 16.502 14.8935C16.502 15.9948 21.9355 17.9971 25.0548 17.9971C28.1741 17.9971 33.6076 15.9948 33.6076 14.8935C33.6076 13.6921 27.3691 10.989 24.8535 10.989C23.8473 11.0892 21.533 11.6898 19.8225 12.4908Z" fill="#D41443"/>
  <path d="M71.6425 17.6968C70.1332 18.0972 69.8313 19.3987 69.8313 26.607V35.0166H73.3531H76.9754L76.6736 26.3066C76.3717 17.1962 75.9692 16.4954 71.6425 17.6968Z" fill="#D41443"/>
  <path d="M83.4152 18.1974C80.0947 19.9995 78.8872 22.202 78.8872 26.5069C78.8872 32.4137 82.1071 35.2169 88.0438 34.8164C92.0686 34.5161 92.4711 34.2157 92.773 31.7129C93.0749 29.21 92.8736 29.0098 89.7543 29.21C86.5345 29.5104 86.4338 29.3101 86.4338 26.0063C86.4338 22.7026 86.6351 22.5023 89.5531 22.8027C91.968 23.0029 92.8736 22.6025 93.2761 21.1007C93.4773 20.0996 93.2761 18.698 92.6724 18.0973C91.2637 16.6957 86.0313 16.6957 83.4152 18.1974Z" fill="#D41443"/>
  <path d="M95.3892 18.2973C95.0873 19.0982 94.9867 23.0027 95.188 27.1074L95.4898 34.5159H102.03C108.068 34.5159 108.571 34.3156 108.872 32.2132C109.174 30.3111 108.772 30.0107 105.653 30.0107C103.64 30.0107 102.03 29.5101 102.03 29.0096C102.03 28.4089 103.439 28.0084 105.049 28.0084C107.363 28.0084 108.068 27.608 108.068 26.0061C108.068 24.4043 107.363 24.0038 105.049 24.0038C103.439 24.0038 102.03 23.5033 102.03 23.0027C102.03 22.402 103.338 22.0015 104.948 22.0015C107.766 22.0015 109.677 19.799 108.47 17.8968C107.564 16.3951 95.9929 16.7956 95.3892 18.2973Z" fill="#D41443"/>
  <path d="M115.614 17.9971C112.294 19.2986 110.986 21.6012 110.885 25.806C110.784 33.0143 113.702 35.5172 121.249 34.8164C124.167 34.6161 124.67 34.1156 124.67 32.0132C124.67 29.8106 124.268 29.5103 121.45 29.8106C119.035 30.0109 118.13 29.7105 117.627 28.1087C116.721 25.0051 118.633 22.5023 121.853 22.5023C123.765 22.5023 124.771 21.9016 124.972 20.6001C125.676 17.3964 120.545 15.8947 115.614 17.9971Z" fill="#D41443"/>
  <path d="M127.991 17.5966C127.487 17.9971 127.186 22.1018 127.186 26.7071V35.1167L130.405 34.8164C132.921 34.6161 133.827 33.9153 134.33 32.0131L134.933 29.5103L135.738 32.2134C136.342 34.516 137.046 35.0166 139.663 35.0166C143.989 35.0166 144.492 34.3158 142.681 30.8118C141.574 28.6092 141.373 27.508 142.178 26.7071C143.486 25.4056 143.587 21.0005 142.379 19.0984C141.373 17.4965 129.299 16.195 127.991 17.5966ZM136.241 23.0028C136.241 24.1041 135.839 25.0051 135.235 25.0051C134.732 25.0051 134.229 24.1041 134.229 23.0028C134.229 21.9016 134.732 21.0005 135.235 21.0005C135.839 21.0005 136.241 21.9016 136.241 23.0028Z" fill="#D41443"/>
  <path d="M146.002 17.6968C145.599 17.9971 145.298 22.1018 145.298 26.7071V35.0166H151.838C158.177 35.0166 158.378 34.9165 158.378 32.5137C158.378 30.4113 157.875 30.0109 155.36 30.0109C153.75 30.0109 152.341 29.5103 152.341 29.0097C152.341 28.409 153.448 28.0086 154.857 28.0086C156.668 28.0086 157.372 27.508 157.372 26.0063C157.372 24.5046 156.668 24.004 154.857 24.004C153.448 24.004 152.341 23.5034 152.341 23.0028C152.341 22.4022 153.75 22.0017 155.36 22.0017C157.875 22.0017 158.378 21.6012 158.378 19.4988C158.378 17.0961 158.077 16.996 152.542 16.996C149.322 16.996 146.304 17.2963 146.002 17.6968Z" fill="#D41443"/>
  <path d="M166.328 17.5969C164.516 18.0974 159.888 31.4127 160.793 33.6152C161.598 35.6175 166.126 35.4173 167.334 33.3149C168.239 31.6129 168.34 31.6129 170.151 33.3149C172.466 35.3172 177.497 35.6175 177.497 33.7153C177.497 33.1146 176.49 29.11 175.182 25.0053C173.17 18.3978 172.566 17.4967 170.453 17.2965C169.044 17.2965 167.233 17.3966 166.328 17.5969ZM169.145 26.7073C168.843 27.7084 168.642 27.1078 168.642 25.5059C168.642 23.804 168.843 23.1032 169.145 23.7039C169.346 24.4047 169.346 25.8063 169.145 26.7073Z" fill="#D41443"/>
  <path d="M180.817 17.6968C179.911 17.9971 179.509 20.8003 179.509 26.607V35.0166H182.427C184.942 35.0166 185.445 34.516 185.848 32.2134C186.25 29.6104 186.25 29.6104 187.055 31.7128C187.458 33.0143 188.464 34.0155 189.168 34.0155C189.973 34.0155 191.08 33.0143 191.583 31.7128C192.388 29.6104 192.489 29.6104 192.489 32.3135C192.59 34.8164 192.891 35.1167 195.709 34.8164L198.828 34.516L198.929 26.2065C199.13 18.4977 199.029 17.897 196.916 17.3964C193.696 16.5955 190.98 18.4977 190.074 22.2019L189.37 25.5057L188.263 22.0017C186.854 17.2963 184.741 16.0949 180.817 17.6968Z" fill="#D41443"/>
  <path d="M14.0869 18.6978C13.785 19.0983 13.4832 20.3998 13.4832 21.7013C13.4832 24.0039 13.5838 24.0039 25.0546 24.0039C36.5255 24.0039 36.6261 24.0039 36.6261 21.7013C36.6261 18.2974 35.7205 17.8969 32.5006 19.4987C28.8783 21.4009 21.231 21.4009 17.6086 19.4987C15.9987 18.6978 14.4894 18.3975 14.0869 18.6978Z" fill="#D41443"/>
  <path d="M11.1688 27.608C9.5589 29.31 12.2757 30.0108 20.1242 30.0108H28.5764V33.5148C28.5764 35.417 29.0795 37.0188 29.5826 37.0188C30.1863 37.0188 30.5888 35.5171 30.5888 33.6149C30.5888 30.3111 30.7901 30.1109 34.6137 29.8105C36.8274 29.6103 38.6386 29.0096 38.6386 28.5091C38.6386 27.4078 12.2757 26.5068 11.1688 27.608Z" fill="#D41443"/>
  <path d="M13.4832 36.4181C13.4832 41.9244 15.395 43.0256 25.0546 43.0256C34.7143 43.0256 36.6261 41.9244 36.6261 36.4181C36.6261 34.0153 36.123 33.0142 35.1168 33.0142C34.2112 33.0142 33.6075 33.9152 33.6075 35.4169C33.6075 41.0233 25.9602 41.5239 24.8534 36.0176C24.3503 33.1143 24.0484 33.0142 18.9167 33.0142H13.4832V36.4181Z" fill="#D41443"/>
  <path d="M19.722 47.7312C20.3257 50.9349 30.5892 50.6345 30.5892 47.531C30.5892 46.4297 29.2811 46.0292 24.9543 46.0292C20.2251 46.0292 19.4201 46.3296 19.722 47.7312Z" fill="#D41443"/>
</svg>
 </symbol>

<!-- 3-LINES -->

 <symbol id="3-lines"> 
<svg xmlns="http://www.w3.org/2000/svg" width="20" height="14" viewBox="0 0 20 14" fill="none">
  <path d="M0 1H20" stroke="#D41443"/>
  <path d="M0 7H20" stroke="#D41443"/>
  <path d="M0 13H20" stroke="#D41443"/>
</svg>
</symbol>

<!-- 
MAJOR-SYMBOL-RED -->

 <symbol id="major-symbol-red"> 
<svg xmlns="http://www.w3.org/2000/svg" width="6" height="10" viewBox="0 0 6 10" fill="none">
                <path d="M1 1L5 5L1 9" stroke="#D41443" stroke-width="2" stroke-linecap="round" stroke-linejoin="round"/>
                </svg>
</symbol>


<!-- 3-POINTS -->

<symbol id="3-points"> 
<svg xmlns="http://www.w3.org/2000/svg" width="26" height="6" viewBox="0 0 26 6" fill="none">
  <circle cx="13" cy="3" r="3" fill="white"/>
  <circle cx="3" cy="3" r="3" fill="white"/>
  <circle cx="23" cy="3" r="3" fill="white"/>
</svg>
</symbol>


<!-- GLASS -->
<symbol id="glass"> 
<svg xmlns="http://www.w3.org/2000/svg" width="33" height="50" viewBox="0 0 33 50" fill="none">
  <g clip-path="url(#clip0_77241_10)">
    <path d="M3.64538 0.224636C3.09858 0.517605 2.78201 1.10354 2.78201 1.7969C2.7916 3.06643 3.10817 4.22854 3.74131 5.2344L4.01951 5.69339L3.49189 6.28909C2.89713 6.95315 2.75323 7.19729 2.48463 7.98831C2.26399 8.63284 2.2448 9.80472 2.43666 10.459C3.10817 12.7051 5.33375 14.0039 7.51137 13.4278C8.25003 13.2324 8.7009 12.9883 9.3916 12.4024L9.97678 11.9141L10.5236 12.1875C10.8306 12.3438 11.3486 12.5684 11.6843 12.6953L12.2791 12.9102V14.0039C12.2791 15.7324 12.634 16.7578 13.5454 17.6856C14.4567 18.6133 15.8861 19.0918 17.1236 18.877C18.0061 18.7207 18.8695 18.2813 19.4547 17.6856C20.366 16.7578 20.721 15.7324 20.721 14.0039V12.9102L21.3253 12.6953C21.6515 12.5684 22.1695 12.3438 22.4765 12.1875L23.0233 11.9141L23.6085 12.4024C24.2992 12.9883 24.75 13.2324 25.4887 13.4278C27.6663 14.0039 29.8919 12.7051 30.5634 10.459C30.7553 9.80472 30.7361 8.63284 30.5154 7.98831C30.2468 7.19729 30.1029 6.95315 29.5082 6.28909L28.9806 5.69339L29.2588 5.2344C29.8919 4.22854 30.2085 3.06643 30.2181 1.7969C30.2181 1.10354 29.9015 0.517605 29.3547 0.224636L28.9422 2.67029e-05H16.5H4.05788L3.64538 0.224636ZM26.6686 3.28128C26.6686 3.31057 26.3904 3.76956 26.0451 4.31643C25.0282 5.92776 25.0666 6.27932 26.4192 7.7051C26.9085 8.22268 27.3593 8.74026 27.4265 8.85745C27.791 9.5801 27.062 10.4785 26.2561 10.293C26.0643 10.2539 25.6422 9.91214 25.0282 9.30667C23.8003 8.09573 23.3782 7.95901 22.4381 8.49612C21.3541 9.12112 19.9727 9.75589 19.3012 9.94143C18.3515 10.2149 18.0253 10.4199 17.7759 10.9375C17.5745 11.3379 17.5553 11.5039 17.5553 13.0664C17.5553 14.9903 17.4785 15.3028 16.9317 15.5664C16.5384 15.7617 16.4617 15.7617 16.0683 15.5664C15.5215 15.3028 15.4448 14.9903 15.4448 13.0664C15.4448 11.5039 15.4256 11.3379 15.2338 10.9375C14.9747 10.4297 14.6486 10.2149 13.6989 9.94143C12.8739 9.70706 11.6556 9.16995 10.984 8.7305C10.3509 8.32034 9.79451 8.16409 9.35323 8.24221C9.06544 8.30081 8.77765 8.52542 8.01021 9.27737C7.37707 9.89261 6.9262 10.2539 6.73433 10.293C5.93811 10.4785 5.20904 9.57034 5.57358 8.85745C5.64073 8.74026 6.0916 8.22268 6.58085 7.7051C7.93346 6.27932 7.97184 5.92776 6.95497 4.31643C6.60963 3.76956 6.33143 3.31057 6.33143 3.28128C6.33143 3.24221 10.9073 3.22268 16.5 3.22268C22.0928 3.22268 26.6686 3.24221 26.6686 3.28128Z" fill="#FFA5BA"/>
    <path d="M0.757849 20.6348C0.268605 20.9668 0 21.4355 0 21.9531C0 22.3047 4.87326 48.3984 5.04593 48.9453C5.13227 49.248 5.48721 49.6094 5.86134 49.8047C6.21628 50 6.4657 50 16.5 50C26.5343 50 26.7837 50 27.1387 49.8047C27.5128 49.6094 27.8677 49.248 27.9541 48.9453C28.1267 48.3984 33 22.3047 33 21.9531C33 21.4355 32.7314 20.9668 32.2421 20.6348L31.916 20.4102H16.5H1.08401L0.757849 20.6348ZM29.2108 24.1895C29.1148 24.9707 28.5584 26.6699 28.1459 27.4414C26.141 31.1523 22.3421 33.4082 17.632 33.6719C14.073 33.877 11.0608 33.1543 8.53779 31.4941C7.07965 30.5371 5.86134 29.2285 4.99796 27.6855C4.51831 26.8359 3.88517 25.0098 3.78924 24.1895L3.72209 23.6328H16.5H29.2779L29.2108 24.1895ZM6.85901 34.248C10.9744 37.0215 17.1235 37.7539 22.3038 36.0742C24.0305 35.5176 25.7956 34.5801 27.273 33.4375C27.7047 33.0957 27.7334 33.0957 27.6855 33.3105C27.6567 33.4375 27.0907 36.4258 26.4288 39.9414C25.7669 43.457 25.2105 46.4355 25.1817 46.5527L25.1337 46.7773H16.5H7.86628L7.81831 46.5527C7.78953 46.4355 7.23314 43.457 6.57122 39.9414C5.9093 36.4258 5.34331 33.4375 5.31453 33.3105C5.26657 33.0957 5.29535 33.0957 5.72703 33.4375C5.97645 33.6328 6.49448 33.9941 6.85901 34.248Z" fill="#FFA5BA"/>
  </g>
  <defs>
    <clipPath id="clip0_77241_10">
      <rect width="33" height="50" fill="white"/>
    </clipPath>
  </defs>
</svg>
</symbol>

<!-- GLASS-CHERRIES -->
<symbol id="glass-cherries"> 
<svg xmlns="http://www.w3.org/2000/svg" width="50" height="50" viewBox="0 0 50 50" fill="none">
  <path d="M46.1382 33.4539C44.1195 32.7379 42.4165 32.917 41.0722 33.4822C41.2981 32.1115 41.8071 30.6197 42.8996 29.6061C43.5734 28.9812 43.6128 27.9285 42.9879 27.2547C42.3633 26.5812 41.3104 26.5416 40.6365 27.1665C38.716 28.948 37.9715 31.461 37.7084 33.5431C37.2084 33.3187 36.6567 33.1473 36.0555 33.0566L39.0089 17.6978C39.1027 17.2103 38.9739 16.7066 38.6577 16.3239C38.3417 15.9413 37.8714 15.7197 37.3749 15.7197H37.056C37.2025 14.9377 37.2764 14.1615 37.2705 13.4231C37.2458 10.3079 35.8592 7.96146 33.5616 7.14648C31.3589 6.365 29.5153 6.59985 28.082 7.24968C28.3092 5.7251 28.8542 4.0256 30.0847 2.88419C30.7584 2.25927 30.7978 1.20658 30.1729 0.532842C29.5483 -0.140727 28.4953 -0.180289 27.8215 0.444627C25.7586 2.35843 24.9857 5.07779 24.7249 7.29833C23.5766 6.75439 22.1565 6.4756 20.4929 6.78234C18.7833 4.32712 16.4103 3.19547 14.1032 3.7485C11.8353 4.29311 10.4188 5.49126 9.57052 6.81432C8.92961 5.40927 8.45807 3.68722 8.8648 2.07038C9.08887 1.17914 8.54813 0.275098 7.65705 0.0508556C6.76547 -0.173892 5.86177 0.367354 5.63753 1.2586C4.95116 3.98722 5.78534 6.68924 6.77692 8.69311C5.18921 8.90759 3.46867 9.70826 2.01345 11.6086C1.10992 12.7887 0.805035 14.262 1.08231 15.8266C0.812274 15.9276 0.569008 16.0965 0.381129 16.3239C0.0651359 16.7066 -0.0638203 17.2103 0.0299508 17.6978L5.98163 48.6502C6.13231 49.4335 6.81783 49.9998 7.61564 49.9998H31.423C32.2209 49.9998 32.9064 49.4335 33.0571 48.6502L33.1156 48.3456C33.5643 48.6547 34.0463 48.9133 34.5636 49.1061C36.5422 49.8428 38.3863 49.5404 39.3195 49.2904C39.8131 49.4227 40.5618 49.5697 41.4505 49.5697C42.2414 49.5697 43.1436 49.4532 44.0752 49.1061C47.7634 47.732 49.7229 43.1071 49.6939 39.4529C49.6707 36.478 48.3414 34.2354 46.1382 33.4539ZM35.2761 19.0475C34.5099 26.3997 28.3197 31.4061 19.6963 31.4061C11.0729 31.4061 4.88264 26.3995 4.11648 19.0475H35.2761ZM24.8976 11.7419C25.1855 12.2865 25.735 12.6275 26.3515 12.6275C26.968 12.6275 27.5173 12.2865 27.8054 11.7419C27.8507 11.6669 28.2587 11.014 29.0072 10.5281C29.9902 9.89042 31.116 9.81011 32.449 10.2828C33.7783 10.7542 33.9363 12.6544 33.9427 13.4493C33.9485 14.1736 33.8422 14.9517 33.6449 15.7195H22.5111C22.8793 13.861 22.6582 11.8261 22.0597 9.98722C22.6481 10.0214 23.1907 10.2009 23.6954 10.5281C24.4443 11.014 24.852 11.6667 24.8976 11.7419ZM4.65588 13.6315C5.51564 12.5088 6.50318 11.9625 7.67524 11.9613H7.67843C8.56968 11.9613 9.26615 12.2857 9.3446 12.3238C9.87726 12.6199 10.5146 12.5928 11.03 12.2655C11.5475 11.9365 11.8269 11.3413 11.7816 10.7296C11.7727 10.6093 11.6012 7.77123 14.8803 6.98402C16.2495 6.65473 17.42 8.16146 17.8587 8.82476C19.12 10.7317 19.7672 13.6805 19.0725 15.7194H4.46497C4.24493 15.028 4.18567 14.2458 4.65588 13.6315ZM8.99039 46.6721L5.69207 29.5195C5.90823 29.7273 6.13079 29.93 6.35992 30.1273C9.80958 33.0978 14.5459 34.7339 19.6963 34.7339C24.8466 34.7339 29.583 33.098 33.0326 30.1273C33.1131 30.0581 33.1917 29.9872 33.2705 29.9167L32.5966 33.4217C32.5646 33.4327 32.5331 33.4426 32.501 33.4539C30.2978 34.2354 28.9685 36.478 28.9451 39.4529C28.9306 41.2722 29.4096 43.332 30.3488 45.1115L30.0488 46.6721H8.99039ZM42.9136 45.9877C41.4395 46.5367 39.9747 46.015 39.9202 45.9951C39.5301 45.8441 39.1101 45.8404 38.7205 45.9946C38.7057 46.0004 37.2204 46.5445 35.7256 45.9876C33.6357 45.2091 32.2528 41.9936 32.2727 39.4791C32.2786 38.7514 32.4205 37.0131 33.6135 36.5901C34.1594 36.3965 34.647 36.317 35.0805 36.317C36.8109 36.317 37.6702 37.5855 37.865 37.9174C38.1523 38.4642 38.7017 38.8066 39.3197 38.8066C39.9379 38.8066 40.487 38.4638 40.7744 37.9174C41.018 37.5025 42.3003 35.6238 45.0259 36.5901C46.2187 37.013 46.3608 38.7514 46.3666 39.4791C46.3863 41.9938 45.0035 45.2093 42.9136 45.9877Z" fill="#FFA5BA"/>
</svg>
</symbol>

<!-- POPSICLE -->
<symbol id="popsicle"> 
<svg xmlns="http://www.w3.org/2000/svg" width="46" height="52" viewBox="0 0 46 52" fill="none">
  <path d="M1.08336 18.1357L1.08339 18.1359C2.03783 22.5167 4.16167 26.4039 7.50728 29.775C10.4958 32.798 13.1215 34.6343 17.2695 36.5405C17.2698 36.5407 17.2702 36.5408 17.2705 36.541L19.2825 37.4855V44.1539V51V51.25H19.5325H20.6883H21.8442H22.0942V51V44.5478V38.4104L22.352 38.4857L22.3533 38.486C22.7258 38.5927 23.2743 38.5927 23.6468 38.486L23.6481 38.4857L23.9059 38.4104V44.5478V51V51.25H24.1559H25.3118H26.4676H26.7176V51V44.1539V37.4688L28.6324 36.5976L28.6336 36.5971C32.6458 34.7477 35.5611 32.7429 38.3968 29.8684L38.397 29.8682C42.9244 25.2711 45.2497 20.0338 45.2499 14.3322C45.2694 8.07514 41.9836 2.9571 36.7781 1.2093C35.6586 0.820095 35.0649 0.764313 33.0152 0.783142M1.08336 18.1357L23.2064 4.63963L23.0478 4.52232M1.08336 18.1357C0.866368 17.137 0.755017 15.7722 0.750166 14.4378C0.745322 13.1054 0.846546 11.7799 1.06487 10.8612C2.23925 5.67977 5.84783 1.84365 10.5219 0.863762M1.08336 18.1357L10.5219 0.863762M33.0152 0.783142L33.0175 1.03313L33.0153 0.783142C33.0153 0.783142 33.0152 0.783142 33.0152 0.783142ZM33.0152 0.783142C31.9463 0.792515 31.2762 0.815857 30.668 0.902878C30.0569 0.990295 29.5159 1.14087 28.7047 1.39474L28.7022 1.39553C26.7723 2.02188 24.8741 3.01043 23.6119 4.04729L23.6096 4.04922L23.0478 4.52232M23.0478 4.52232L22.1662 3.87062L22.1657 3.87026C19.4484 1.87175 16.6649 0.897934 13.3973 0.764584L13.3955 0.764507C12.8315 0.745579 12.2288 0.745567 11.7127 0.762161C11.2054 0.778469 10.7601 0.81131 10.5219 0.863762M23.0478 4.52232L10.5219 0.863762M21.3836 6.87937L21.383 6.87875C20.9969 6.51179 20.2963 6.00657 19.5297 5.5261C18.7658 5.04729 17.9568 4.60583 17.3591 4.36006C16.7958 4.14095 15.7146 3.82689 14.9213 3.67976C11.7123 3.09176 9.25032 3.71591 7.0805 5.64641L7.07887 5.64783C6.62023 6.04881 6.13464 6.5764 5.78629 7.01869C5.61905 7.23104 5.48885 7.4169 5.40893 7.55517C5.51357 7.57449 5.64727 7.59843 5.80405 7.62592C6.19043 7.69368 6.71402 7.78254 7.28127 7.87616C9.2817 8.18822 10.8334 8.60649 12.4963 9.40769C14.1541 10.2064 15.9134 11.3814 18.3338 13.1934L18.3362 13.1952C19.3188 13.9496 20.9776 14.9161 22.644 15.6994L22.6441 15.6994L22.6483 15.7014C23.3918 16.0681 24.1077 16.4354 24.6604 16.7352C24.9365 16.8849 25.1739 17.0189 25.3545 17.1282C25.4447 17.1827 25.5229 17.2325 25.5856 17.2759C25.6429 17.3156 25.7028 17.3604 25.7447 17.4054C25.9529 17.6278 26.1254 17.8511 26.2618 18.132C26.3976 18.4117 26.4917 18.7367 26.558 19.1573C26.6893 19.9895 26.7176 21.2393 26.7176 23.3344C26.7176 25.235 26.7227 26.2337 26.7721 26.8039C26.7967 27.0883 26.8309 27.2438 26.8706 27.3435C26.9061 27.4328 26.9497 27.4875 27.0273 27.563C27.4276 27.9528 27.9743 27.937 28.2659 27.6126L28.2658 27.6125L28.2718 27.6063C28.3528 27.5221 28.43 27.3875 28.4749 26.865C28.5195 26.3458 28.5293 25.5045 28.5293 24.0659C28.5293 22.1605 28.5759 21.0007 28.7881 20.2013C28.8964 19.7935 29.049 19.4727 29.2629 19.1908C29.4748 18.9115 29.7391 18.6807 30.0555 18.4449L30.0585 18.4427C30.3778 18.212 30.6559 18.0609 31.1093 17.9417C31.5483 17.8262 32.1534 17.7402 33.1236 17.628L33.1248 17.6278C36.1543 17.2918 37.9047 16.9016 39.9986 16.1046L39.9988 16.1046C40.6563 15.8551 41.1423 15.6684 41.5055 15.5013C41.871 15.3332 42.0857 15.1962 42.2181 15.057C42.3408 14.928 42.4051 14.7839 42.4351 14.566C42.4669 14.3349 42.458 14.0392 42.4385 13.6113L42.4384 13.6113L42.4383 13.6061C42.4195 12.8586 42.2302 11.6029 42.023 10.8326L42.0227 10.8316C40.8708 6.47433 37.2753 3.42135 33.3835 3.42135C30.4793 3.42135 26.9366 4.78597 24.7476 6.77024L24.7464 6.77132C24.3892 7.09093 24.0876 7.34282 23.8172 7.51701C23.5457 7.69184 23.2855 7.80185 23.0122 7.81249C22.7352 7.82328 22.4803 7.73079 22.223 7.56975C21.9696 7.4112 21.698 7.176 21.3836 6.87937ZM5.17892 7.50983C5.17591 7.50893 5.17425 7.50854 5.17447 7.50864C5.17464 7.50872 5.17602 7.50911 5.17892 7.50983ZM14.646 13.9706L14.6445 13.9695C12.6422 12.4842 10.4569 11.3949 8.53117 10.9168C7.64875 10.7044 6.52412 10.5279 5.6016 10.4374C5.13982 10.3921 4.73527 10.369 4.44044 10.3726C4.29177 10.3744 4.18014 10.383 4.10621 10.3962C4.09457 10.3982 4.08479 10.4002 4.07669 10.4021C3.99781 10.5576 3.91368 10.8319 3.83642 11.2086C3.75233 11.6185 3.68179 12.1209 3.6306 12.6599C3.528 13.7401 3.50506 14.946 3.59899 15.824C4.11205 20.5782 6.18011 24.5959 10.1504 28.4058L10.1512 28.4065C13.2827 31.4369 17.1801 33.8 21.5966 35.2891L21.5966 35.2891L21.6001 35.2904L23.0006 35.7862L24.4202 35.29L24.4216 35.2895C28.553 33.8742 32.6054 31.5093 35.5437 28.76C37.5691 26.8624 38.6131 25.5682 39.9487 23.2833L39.9497 23.2817C40.3629 22.5867 40.9301 21.3265 41.3694 20.2069C41.5885 19.6486 41.773 19.1322 41.8892 18.7455C41.9309 18.6064 41.9627 18.4878 41.9842 18.392C41.9163 18.4097 41.8371 18.4319 41.7478 18.4583C41.4221 18.5549 40.9795 18.703 40.5018 18.8798L40.5005 18.8803C38.5706 19.5825 35.6787 20.2056 33.3479 20.4136L33.3463 20.4137C33.3114 20.4166 33.2773 20.4194 33.2437 20.4222C32.7186 20.4653 32.3529 20.4954 32.081 20.5667C31.8112 20.6375 31.6718 20.7394 31.5764 20.9178C31.4673 21.1218 31.402 21.4506 31.3702 22.017C31.3408 22.54 31.3409 23.2291 31.341 24.1514C31.3411 24.2155 31.3411 24.2808 31.3411 24.3473C31.3411 26.1308 31.3179 27.1836 31.1851 27.8958C31.1175 28.2584 31.0201 28.5423 30.8784 28.7952C30.7377 29.0462 30.5596 29.2551 30.3461 29.4727C29.9644 29.8735 29.582 30.1631 29.1543 30.3508C28.7255 30.5389 28.2659 30.618 27.7391 30.618C26.9259 30.618 26.2322 30.4566 25.6534 30.1031C25.0736 29.749 24.6298 29.2148 24.2957 28.5051L24.2956 28.5049C24.1255 28.1425 24.0287 27.7972 23.9741 27.1005C23.9202 26.4137 23.9059 25.3671 23.9059 23.597C23.9059 22.1247 23.8914 21.0989 23.8557 20.4168C23.8378 20.0751 23.8148 19.8265 23.7871 19.6538C23.7733 19.5674 23.7591 19.5058 23.7459 19.4639C23.7369 19.4352 23.7305 19.4227 23.7292 19.4202C23.7292 19.4202 23.7292 19.4202 23.7292 19.4202C23.7277 19.4185 23.7175 19.4077 23.6916 19.3873C23.6646 19.366 23.6279 19.34 23.5811 19.3097C23.4874 19.249 23.3629 19.1771 23.2147 19.098C22.919 18.9404 22.5407 18.7607 22.1513 18.5942C20.5163 17.9118 18.3608 16.7021 17.0528 15.7327C16.5722 15.3771 15.495 14.5905 14.6471 13.9714L14.646 13.9706ZM4.04543 10.4111C4.0423 10.4125 4.04291 10.4125 4.04606 10.4109L4.04543 10.4111ZM4.10544 10.3503L4.10365 10.3533C4.10424 10.3523 4.10485 10.3513 4.10544 10.3503Z" fill="#FFA5BA" stroke="#FFA5BA" stroke-width="0.5"/>
</svg>
</symbol>

<!-- QUOTES -->
<symbol id="quotation-marks"> 
<svg xmlns="http://www.w3.org/2000/svg" width="54" height="40" viewBox="0 0 54 40" fill="#E1E1E1">
  <path d="M40.0179 2.59234e-06C42.4286 2.80309e-06 44.7054 0.650413 46.8482 1.95122C48.9911 3.25204 50.7321 5.12196 52.0714 7.56098C53.3571 10 54 12.8726 54 16.1789C54 19.4851 53.1964 22.71 51.5893 25.8537C51.0536 26.9919 50.0893 28.4553 48.6964 30.2439C47.25 32.0325 45.9107 33.5772 44.6786 34.878L39.6161 40L36 33.9837C38.5179 32.4119 40.7411 30.4607 42.6696 28.1301C44.5982 25.8537 45.5625 23.7669 45.5625 21.8699C45.5625 20.8943 45.3482 20.1084 44.9196 19.5122C43.0446 20.8672 40.9554 21.5447 38.6518 21.5447C36.9911 21.5447 35.4107 21.0298 33.9107 20C32.3571 19.0244 31.125 17.7236 30.2143 16.0976C29.25 14.5257 28.7679 12.8997 28.7679 11.2195C28.7679 9.32249 29.3304 7.50678 30.4554 5.77236C31.5268 4.03794 32.9464 2.62873 34.7143 1.54472C36.4286 0.51491 38.1964 2.43311e-06 40.0179 2.59234e-06ZM11.1696 7.03482e-08C13.5804 2.81099e-07 15.8571 0.65041 18 1.95122C20.1429 3.25203 21.8839 5.12195 23.2232 7.56098C24.5089 10 25.1518 12.8726 25.1518 16.1789C25.1518 18.5095 24.8571 20.5962 24.2679 22.439C23.6786 24.336 22.6607 26.3144 21.2143 28.374C19.8214 30.3252 18.5089 31.9512 17.2768 33.252C16.0446 34.607 13.9018 36.8564 10.8482 40L7.23214 33.9837C9.75 32.4119 11.9732 30.4607 13.9018 28.1301C15.8304 25.8537 16.7946 23.7669 16.7946 21.8699C16.7946 20.8943 16.5804 20.1084 16.1518 19.5122C14.2768 20.8672 12.1875 21.5447 9.88393 21.5447C8.22321 21.5447 6.64285 21.0298 5.14285 20C3.58928 19.0244 2.35714 17.7236 1.44643 16.0976C0.482142 14.5257 -1.44552e-06 12.8997 -1.29863e-06 11.2195C-1.13278e-06 9.32249 0.535712 7.50677 1.60714 5.77236C2.67857 4.03794 4.09821 2.62873 5.86607 1.54472C7.58036 0.514908 9.34821 -8.88862e-08 11.1696 7.03482e-08Z" fill="#E1E1E1"/>
</svg>
</symbol>


<!-- RECTANGLE -->
<symbol id="rectangle"> 
<svg xmlns="http://www.w3.org/2000/svg" width="180" height="188" viewBox="0 0 180 188" fill="none">
  <path d="M0 1H180" stroke="#E1E1E1"/>
  <path d="M0 94H180" stroke="#E1E1E1"/>
  <path d="M0 187H180" stroke="#E1E1E1"/>
  <path d="M0 63H180" stroke="#E1E1E1"/>
  <path d="M0 156H180" stroke="#E1E1E1"/>
  <path d="M0 32H180" stroke="#E1E1E1"/>
  <path d="M0 125H180" stroke="#E1E1E1"/>
</svg>
</symbol>

<!-- 3-POINTS-B -->
<symbol id="3-points-b"> 
<svg xmlns="http://www.w3.org/2000/svg" width="32" height="4" viewBox="0 0 32 4" fill="none">
  <circle cx="16" cy="2" r="2" fill="#C7133E"/>
  <circle cx="2" cy="2" r="2" fill="#C7133E"/>
  <circle cx="30" cy="2" r="2" fill="#C7133E"/>
</svg>
</symbol>

<!-- 3-POINTS-HOUSE -->
<symbol id="3-points-house"> 
<svg xmlns="http://www.w3.org/2000/svg" width="73" height="12" viewBox="0 0 73 12" fill="none">
  <circle cx="36.395" cy="6" r="6" fill="#D9D9D9"/>
  <path d="M12.2399 5.77539C12.4646 5.53163 12.4429 5.15801 12.1914 4.94111L6.65187 0.159738C6.40043 -0.0571627 5.99731 -0.052619 5.75117 0.169981L0.19278 5.19603C-0.053367 5.41863 -0.065448 5.79177 0.166032 6.02912L0.305389 6.17228C0.536586 6.40963 0.910291 6.43793 1.13955 6.2353L1.55495 5.86834V11.2407C1.55495 11.5703 1.82571 11.8372 2.15961 11.8372H4.32629C4.66019 11.8372 4.93095 11.5703 4.93095 11.2407V7.48221H7.69456V11.2407C7.68976 11.5701 7.92867 11.8369 8.26258 11.8369H10.5587C10.8926 11.8369 11.1634 11.5701 11.1634 11.2405V5.94398C11.1634 5.94398 11.2781 6.04315 11.4197 6.16587C11.561 6.28835 11.8577 6.19014 12.0824 5.94614L12.2399 5.77539Z" fill="#D31342"/>
  <circle cx="66.395" cy="6" r="6" fill="#D9D9D9"/>
</svg>
</symbol>


<!-- LINE -->
<symbol id="line"> 
<svg xmlns="http://www.w3.org/2000/svg" width="216" height="2" viewBox="0 0 216 2" fill="none">
  <path d="M0 1H216" stroke="#E1E1E1"/>
</svg>
</symbol>


<!-- MAJOR-SYMBOL-WHITE -->
<symbol id="major-symbol-white"> 
<svg xmlns="http://www.w3.org/2000/svg" width="6" height="10" viewBox="0 0 6 10" fill="none">
  <path d="M0.999969 1L4.61032 5L0.999969 9" stroke="white" stroke-width="2" stroke-linecap="round" stroke-linejoin="round"/>
</svg>
</symbol>


<!-- GITHUB -->
<symbol id="github"> 
<svg xmlns="http://www.w3.org/2000/svg" width="32" height="32" viewBox="0 0 32 32" fill="none">
  <circle cx="16" cy="16" r="16" fill="#FEA5BB"/>
  <path d="M16 6.58813C10.8305 6.58813 6.58823 10.8304 6.58823 15.9999C6.58823 20.4112 9.68365 24.4184 13.7941 25.4117V22.2979C13.3868 22.387 13.012 22.3896 12.5974 22.2674C12.0412 22.1033 11.5892 21.7328 11.2538 21.1678C11.0399 20.807 10.6609 20.4158 10.2656 20.4446L10.1686 19.3459C11.0236 19.2727 11.7632 19.8668 12.2022 20.6044C12.3972 20.9324 12.6217 21.1247 12.9098 21.2097C13.1882 21.2917 13.4872 21.2524 13.8356 21.1293C13.9231 20.4318 14.2426 20.1707 14.484 19.803V19.8025C12.0326 19.4368 11.0556 18.1363 10.6678 17.1097C10.154 15.7467 10.4297 14.0439 11.3383 12.9678C11.356 12.9468 11.3879 12.892 11.3755 12.8536C10.9589 11.5952 11.4666 10.5541 11.4853 10.4437C11.9661 10.5859 12.0442 10.3007 13.5738 11.23L13.8382 11.3888C13.9488 11.4547 13.914 11.4171 14.0246 11.4088C14.6633 11.2353 15.3365 11.1395 15.9999 11.1309C16.6682 11.1395 17.3372 11.2353 18.0022 11.4158L18.0878 11.4244C18.0804 11.4233 18.1111 11.419 18.1627 11.3882C20.0734 10.2309 20.0048 10.6091 20.5172 10.4425C20.5357 10.5531 21.0366 11.6111 20.6245 12.8536C20.5689 13.0248 22.281 14.5926 21.332 17.1093C20.9443 18.1363 19.9674 19.4368 17.516 19.8025V19.803C17.8302 20.282 18.2077 20.5367 18.2057 21.5248V25.4117C22.3163 24.4184 25.4116 20.4112 25.4116 15.9999C25.4118 10.8304 21.1695 6.58813 16 6.58813V6.58813Z" fill="white"/>
</svg>
</symbol>

<!-- TELEGRAM -->
<symbol id="telegram"> 
<svg xmlns="http://www.w3.org/2000/svg" width="33" height="32" viewBox="0 0 33 32" fill="none">
  <g clip-path="url(#clip0_57354_400)">
    <circle cx="16.2353" cy="16" r="16" fill="#FEA5BB"/>
    <path d="M13.1025 18.3753L12.7849 22.5446C13.2393 22.5446 13.4361 22.3624 13.6721 22.1437L15.8026 20.2434L20.2171 23.2607C21.0267 23.6818 21.5971 23.46 21.8155 22.5655L24.7132 9.89318L24.714 9.89243C24.9708 8.77542 24.2812 8.33863 23.4924 8.61265L6.45996 14.6987C5.29753 15.1198 5.31513 15.7246 6.26235 15.9986L10.6169 17.2627L20.7315 11.3559C21.2075 11.0617 21.6403 11.2245 21.2843 11.5187L13.1025 18.3753Z" fill="white"/>
  </g>
  <defs>
    <clipPath id="clip0_57354_400">
      <rect width="32" height="32" fill="white" transform="translate(0.235264)"/>
    </clipPath>
  </defs>
</svg>
</symbol>

<!-- FACEBOOK -->
<symbol id="facebook"> 
  <svg xmlns="http://www.w3.org/2000/svg" width="33" height="32" viewBox="0 0 33 32" fill="none">
  <g clip-path="url(#clip0_57354_393)">
    <path d="M16.4706 32C25.3071 32 32.4706 24.8366 32.4706 16C32.4706 7.16344 25.3071 0 16.4706 0C7.63403 0 0.470589 7.16344 0.470589 16C0.470589 24.8366 7.63403 32 16.4706 32Z" fill="#FEA5BB"/>
    <path d="M20.9162 15.9814H18.3061V25.5999H14.3514V15.9814H12.4706V12.6011H14.3514V10.4136C14.3514 8.84938 15.0901 6.3999 18.3413 6.3999L21.2706 6.41223V9.69341H19.1452C18.7965 9.69341 18.3063 9.86861 18.3063 10.6148V12.6042H21.2617L20.9162 15.9814Z" fill="white"/>
  </g>
  <defs>
    <clipPath id="clip0_57354_393">
      <rect width="32" height="32" fill="white" transform="translate(0.470589)"/>
    </clipPath>
  </defs>
</svg>
</symbol>

<!-- LINE-FOOTER -->
<symbol id="line-footer"> 
<svg xmlns="http://www.w3.org/2000/svg" width="320" height="2" viewBox="0 0 320 2" fill="none">
  <path d="M0 1H320" stroke="#E1E1E1"/>
</svg>
</symbol>


<!-- MODAL-CLOSE -->
<symbol id="modal-close"> 
<svg xmlns="http://www.w3.org/2000/svg" width="16" height="16" viewBox="0 0 16 16" fill="none">
  <path d="M1 14.7407L15 1.25924" stroke="white"/>
</svg>
</symbol>



<!-- TABLET-TABLET -->


<!-- ELIPSE-1 -->
<symbol id="elipse1"> 
<svg xmlns="http://www.w3.org/2000/svg" width="16" height="16" viewBox="0 0 16 16" fill="none">
  <circle cx="8" cy="8" r="8" transform="matrix(-1 0 0 1 16 0)" fill="white"/>
</svg>
</symbol>

<!-- ELIPSE-2 -->
<symbol id="elipse-2"> 
<svg xmlns="http://www.w3.org/2000/svg" width="16" height="16" viewBox="0 0 16 16" fill="none">
  <circle cx="8" cy="8" r="8" transform="matrix(-1 0 0 1 16 0)" fill="white"/>
</svg>
</symbol>



      </defs>
</svg>